<svg width="18" height="19" viewBox="0 0 18 19" fill="none" xmlns="http://www.w3.org/2000/svg">
<rect x="0.601624" y="0.525391" width="17" height="18" rx="4" fill="#17A0DB"/>
<path d="M11.5056 1.85879C11.4834 1.85897 11.4608 1.85993 11.4379 1.86174C11.1543 1.88411 10.9092 2.04669 10.7752 2.30135C10.724 2.39861 10.7109 2.48511 10.693 2.84207C10.6695 3.3125 10.6506 3.45117 10.5954 3.55896C10.5086 3.72849 10.1792 3.92995 9.70583 4.1029C9.37582 4.22346 9.14565 4.36633 8.91037 4.59668C8.57855 4.92155 8.44603 5.22016 8.3237 5.91837C8.29387 6.08863 8.2693 6.31583 8.26921 6.4233C8.26907 6.54716 8.25626 6.62835 8.23415 6.64498C8.21497 6.65942 8.11144 6.69384 8.00403 6.72155C7.36812 6.8856 6.84288 7.1941 6.49366 7.60863C6.31686 7.81848 6.11229 8.20801 6.05002 8.4534C5.95173 8.84077 5.95399 9.34748 6.05592 9.79187C6.11537 10.051 6.13159 10.189 6.10288 10.1913C6.08976 10.1924 5.95976 10.1964 5.81399 10.2003C5.3994 10.2114 5.11888 10.3501 4.75961 10.7218C4.37305 11.1217 4.1334 11.6469 4.03063 12.3194C3.98685 12.6059 3.99382 13.4075 4.0438 13.8356C4.09682 14.2899 4.19679 14.7406 4.32578 15.1073C4.39014 15.2902 4.61377 15.7374 4.98275 16.4207C5.29043 16.9904 5.54594 17.4529 5.55053 17.4484C5.55512 17.4439 5.67881 16.9087 5.82543 16.2591C6.1604 14.7751 6.22944 14.5496 6.44807 14.2256C6.59975 14.0009 6.60957 13.9997 6.96 14.1633C7.31935 14.3309 7.6896 14.4286 8.12881 14.4717C8.40247 14.4985 8.50781 14.4961 8.83599 14.4557C9.80404 14.3365 10.6369 13.9472 11.2861 13.3104C11.5398 13.0615 11.5659 13.0435 11.719 13.0123C12.3123 12.8912 12.9967 12.3102 13.4278 11.5616C13.8673 10.7982 14.0978 9.92974 14.1863 8.70248C14.2825 7.37037 13.9259 6.4895 13.1054 6.03251C13.0194 5.98463 12.8639 5.91907 12.7597 5.88677C12.6556 5.85447 12.5588 5.81315 12.5447 5.79494C12.5188 5.76158 12.397 5.32237 12.3977 5.26484C12.3979 5.24782 12.4401 5.16533 12.4914 5.08153C12.703 4.73625 12.8078 4.23767 12.7588 3.80866C12.7249 3.5111 12.4762 2.76813 12.2954 2.42406C12.0926 2.03815 11.8391 1.85618 11.5056 1.85879ZM11.4985 2.48572C11.6496 2.48572 11.7985 2.76284 12.0363 3.48632C12.2024 3.99182 12.155 4.44418 11.894 4.84459C11.8305 4.94198 11.7465 5.05521 11.7072 5.09626L11.6359 5.17087L11.7229 5.35667C11.7707 5.45887 11.8311 5.62268 11.857 5.72069C11.9047 5.90161 11.9202 6.23537 11.8858 6.3404C11.8677 6.39568 11.8781 6.39875 12.1394 6.41384C12.8524 6.45502 13.294 6.82083 13.4906 7.53304C13.5474 7.73871 13.5539 7.82281 13.5524 8.32516C13.5499 9.10905 13.4634 9.71515 13.2619 10.3587C12.977 11.2689 12.4805 11.9581 11.8657 12.2968C11.6795 12.3995 11.5366 12.4083 11.4168 12.3245C11.3711 12.2925 11.3242 12.2771 11.3127 12.2902C11.3012 12.3034 11.2304 12.4005 11.1554 12.506C10.4293 13.527 8.89227 14.0814 7.66919 13.7634C7.44256 13.7044 6.97761 13.4803 6.79372 13.3413L6.64351 13.2278L6.45125 13.3569C5.94523 13.6967 5.63308 14.2459 5.42339 15.1654C5.389 15.3162 5.34933 15.4611 5.3353 15.4874C5.30546 15.5436 5.24669 15.5499 5.20679 15.5012C5.1379 15.4171 4.97638 15.0605 4.89793 14.8194C4.71879 14.2687 4.64019 13.7156 4.63846 12.9935C4.63724 12.4853 4.66393 12.2732 4.77124 11.9366C4.88157 11.5906 5.02076 11.3528 5.24375 11.1295C5.54255 10.8304 5.72028 10.7733 6.073 10.8631C6.2943 10.9195 6.44285 10.9953 6.90034 11.2853C7.48846 11.6583 7.51237 11.6667 7.58091 11.5248C7.63965 11.4031 7.68632 11.192 7.65674 11.1818C7.56544 11.1503 7.31378 10.9428 7.20094 10.8058C7.02975 10.5981 6.81139 10.1641 6.72206 9.85416C6.59072 9.39843 6.57814 8.83637 6.69218 8.51873C6.86476 8.03807 7.23875 7.67741 7.79479 7.45531C8.06612 7.34693 8.23677 7.30097 8.64564 7.2264C8.82978 7.19282 8.98343 7.1633 8.98702 7.16081C8.99062 7.15832 8.97374 7.06458 8.94952 6.95251C8.89469 6.69886 8.90957 6.13157 8.97894 5.83037C9.135 5.15281 9.33562 4.91911 9.97084 4.67521C10.132 4.61335 10.3266 4.53168 10.4033 4.49369C10.7458 4.32412 11.0498 4.06162 11.1683 3.8332C11.2522 3.67173 11.3099 3.35 11.3288 2.93801C11.3465 2.55278 11.3717 2.48572 11.4985 2.48572ZM11.0292 4.66183C11.0207 4.65909 10.984 4.67676 10.9404 4.7052C10.8905 4.7377 10.6111 4.87991 10.3196 5.02121C9.66941 5.3363 9.58209 5.40435 9.50241 5.65751C9.4701 5.76014 9.43557 5.88922 9.42567 5.94434L9.40768 6.04456L9.76595 5.89552C10.3569 5.64983 10.3975 5.62914 10.5108 5.51508C10.6613 5.36363 10.825 5.12058 10.9368 4.88279C10.9886 4.77262 11.031 4.67433 11.031 4.66432C11.031 4.66307 11.0304 4.66222 11.0292 4.66183ZM11.3224 5.61101C11.3018 5.61101 11.2028 5.68837 11.1022 5.7829C10.9328 5.94219 10.9194 5.96335 10.9194 6.07213C10.9194 6.20687 10.9752 6.32893 11.065 6.39073C11.2565 6.52255 11.4495 6.32471 11.4495 5.99654C11.4495 5.81657 11.3817 5.61101 11.3224 5.61101ZM10.3767 6.13192C10.2454 6.13192 9.49204 6.46912 9.40042 6.56886C9.35111 6.62253 9.34912 6.64195 9.37853 6.77974C9.44486 7.09048 9.61565 7.35254 9.87048 7.53465C9.93741 7.58247 10.0144 7.61238 10.0706 7.61238C10.1771 7.61238 10.4771 7.46547 10.6837 7.31216C10.8211 7.21026 11.0031 6.98211 11.0031 6.91191C11.0031 6.8937 10.965 6.86325 10.9183 6.84426C10.6737 6.74468 10.5216 6.55357 10.4445 6.24848C10.4277 6.18189 10.3986 6.13192 10.3767 6.13192ZM12.4331 6.9327C12.4253 6.93318 12.4179 6.93466 12.411 6.93725C12.3659 6.95425 12.2865 7.20241 12.2865 7.32608C12.2865 7.37423 12.3569 7.6156 12.4429 7.86252C12.6894 8.56965 12.8314 9.00744 12.8862 9.22839C12.9478 9.47673 12.9661 9.44637 13.0094 9.02375C13.0811 8.32387 13.0356 7.7359 12.8839 7.39873C12.7719 7.14995 12.551 6.9256 12.4331 6.9327ZM11.8021 7.07504C11.7991 7.07443 11.7958 7.07495 11.7922 7.07629C11.7083 7.10794 11.4181 7.32104 11.1565 7.54312C10.6596 7.96509 10.2705 8.1884 10.0333 8.18781C9.8921 8.18745 9.68092 8.06416 9.44174 7.84244L9.24776 7.66262L9.04433 7.69359C8.73689 7.74032 8.26774 7.85096 8.0399 7.93053C7.62079 8.07688 7.36622 8.26835 7.23063 8.53898C7.13999 8.71992 7.13909 8.72517 7.13918 9.11969C7.13923 9.48079 7.14666 9.54066 7.21856 9.76447C7.3516 10.1786 7.55563 10.5116 7.75074 10.6332C7.82398 10.6789 7.86954 10.6846 8.05979 10.6719C8.18254 10.6637 8.43363 10.6258 8.61776 10.5877C9.00186 10.5084 10.1103 10.2124 10.1103 10.1892C10.1103 10.1621 9.75943 9.9457 9.61829 9.88575C9.13541 9.68065 8.68378 9.67151 7.91884 9.85139C7.73364 9.89494 7.58113 9.9167 7.53705 9.90583C7.45555 9.88573 7.41843 9.80784 7.44351 9.70967C7.46651 9.61962 7.8376 9.35183 8.17295 9.18323C8.98684 8.77403 9.83333 8.70743 10.6822 8.98591C11.1868 9.15144 11.5295 9.34142 12.3562 9.91386C12.4636 9.98823 12.5615 10.0394 12.5738 10.0275C12.6292 9.97368 12.403 9.12186 12.1327 8.3663C11.8393 7.54591 11.8354 7.53192 11.8322 7.2894C11.8301 7.13518 11.823 7.07934 11.8021 7.07504ZM9.50813 9.28827C9.1788 9.28479 9.1469 9.30912 9.39987 9.36475C9.83607 9.46068 10.2337 9.69633 10.6265 10.0917C10.9114 10.3784 10.9815 10.4307 11.1287 10.4656C11.3206 10.5111 11.8286 10.4745 12.0089 10.4022L12.0989 10.3661L11.7254 10.0904C11.279 9.76082 11.0928 9.64711 10.7873 9.51736C10.3884 9.34795 10.1778 9.30546 9.66751 9.29148C9.60828 9.28986 9.55517 9.28877 9.50813 9.28827ZM10.4415 10.5595L9.66914 10.8171C8.84954 11.0904 8.27111 11.3009 8.23043 11.3406C8.21687 11.3538 8.17001 11.452 8.12636 11.5588C7.93216 12.0338 7.58975 12.3936 7.05545 12.6843C6.96338 12.7344 6.88273 12.7798 6.87618 12.785C6.84167 12.8125 7.26659 13.0818 7.45595 13.1524C7.54258 13.1847 7.72012 13.2343 7.85055 13.2628C8.16527 13.3314 8.75972 13.3181 9.10027 13.2347C10.1854 12.9689 11.0758 12.0567 11.1862 11.0979L11.2053 10.9324L11.1251 10.9148C10.8588 10.8565 10.6663 10.7689 10.534 10.6457L10.4415 10.5595ZM12.5517 10.7198C12.5287 10.7191 12.452 10.7384 12.3665 10.7669C12.2688 10.7996 12.0822 10.8478 11.9518 10.874L11.7149 10.9217L11.6844 11.181C11.6676 11.3236 11.6312 11.5225 11.6035 11.623C11.5626 11.7714 11.5598 11.8135 11.5885 11.8474C11.6079 11.8704 11.6352 11.8892 11.6491 11.8892C11.6958 11.8892 12.1078 11.4664 12.2368 11.2861C12.3878 11.075 12.5779 10.7408 12.5581 10.7213C12.5571 10.7204 12.5549 10.7199 12.5517 10.7198ZM5.77112 11.4231C5.70807 11.4231 5.49255 11.6912 5.38706 11.9009C5.17131 12.3296 5.08698 12.8591 5.14204 13.439C5.16061 13.6345 5.18301 13.847 5.19181 13.9111C5.2006 13.9751 5.21214 14.0276 5.21751 14.0276C5.22287 14.0276 5.26373 13.9566 5.30832 13.8699C5.45426 13.5862 5.70023 13.2894 5.97964 13.0598L6.10351 12.9579L6.0176 12.8691C5.84705 12.6924 5.83569 12.6433 5.83987 12.1025C5.84396 11.5742 5.82865 11.4231 5.77112 11.4231ZM6.46941 11.6803C6.46576 11.6802 6.46316 11.6807 6.46178 11.682C6.41507 11.7279 6.35161 12.4085 6.39049 12.4467C6.40072 12.4567 6.41995 12.4649 6.43318 12.4649C6.48579 12.4649 6.78639 12.2992 6.95437 12.1775L7.13228 12.0486L6.98225 11.966C6.89974 11.9206 6.7534 11.8337 6.65704 11.7729C6.57272 11.7197 6.49495 11.6817 6.46941 11.6803Z" fill="white"/>
</svg>
