<svg width="19" height="19" viewBox="0 0 19 19" fill="none" xmlns="http://www.w3.org/2000/svg">
<g clip-path="url(#clip0_74_3)">
<path d="M9.60162 18.5254C14.5722 18.5254 18.6016 14.496 18.6016 9.52539C18.6016 4.55483 14.5722 0.525391 9.60162 0.525391C4.63106 0.525391 0.601624 4.55483 0.601624 9.52539C0.601624 14.496 4.63106 18.5254 9.60162 18.5254Z" fill="#4A8CFF"/>
<path d="M3.82709 6.70767V10.9371C3.82931 11.3959 4.01356 11.835 4.33937 12.1579C4.66517 12.4808 5.10586 12.6612 5.5646 12.6594H11.7297C11.8131 12.6598 11.8932 12.6271 11.9524 12.5686C12.0117 12.51 12.0454 12.4303 12.046 12.347V8.11749C12.0438 7.65875 11.8595 7.21967 11.5337 6.89672C11.2079 6.57378 10.7672 6.3934 10.3085 6.39522H4.14525C4.10382 6.39477 4.06271 6.4025 4.02428 6.41797C3.98585 6.43344 3.95085 6.45635 3.92129 6.48538C3.89173 6.5144 3.86819 6.54898 3.85203 6.58713C3.83586 6.62527 3.82739 6.66624 3.82709 6.70767ZM12.4384 8.35754L14.9837 6.4981C15.2047 6.31482 15.3762 6.36093 15.3762 6.69242V12.3622C15.3762 12.7394 15.1666 12.6937 14.9837 12.5561L12.4384 10.7009V8.35754Z" fill="white"/>
</g>
<defs>
<clipPath id="clip0_74_3">
<rect width="18" height="18" fill="white" transform="translate(0.601624 0.525391)"/>
</clipPath>
</defs>
</svg>
